<svg xmlns="http://www.w3.org/2000/svg" xmlns:xlink="http://www.w3.org/1999/xlink" width="500" zoomAndPan="magnify" viewBox="0 0 375 374.999991" height="500" preserveAspectRatio="xMidYMid meet" version="1.0"><defs><clipPath id="6c9e7b381b"><path d="M 10.816406 41.902344 L 364.066406 41.902344 L 364.066406 337.402344 L 10.816406 337.402344 Z M 10.816406 41.902344 " clip-rule="nonzero"/></clipPath><clipPath id="bfa3f44aec"><path d="M 325.808594 113.304688 C 302.054688 89.550781 269.164062 74.933594 232.898438 74.933594 L 168.382812 74.933594 C 166.414062 63.828125 156.71875 55.394531 144.910156 55.394531 C 131.839844 55.394531 121.15625 66.078125 121.15625 79.148438 C 121.15625 80.976562 121.296875 82.664062 121.71875 84.351562 L 68.867188 106.839844 L 40.476562 94.1875 C 40.476562 93.625 40.617188 92.925781 40.617188 92.363281 C 40.617188 84.070312 33.867188 77.460938 25.714844 77.460938 C 17.425781 77.460938 10.816406 84.070312 10.816406 92.363281 C 10.816406 100.515625 17.425781 107.261719 25.714844 107.261719 C 28.246094 107.261719 30.636719 106.558594 32.746094 105.433594 L 74.492188 147.179688 L 74.492188 337.496094 L 232.898438 337.496094 C 269.164062 337.496094 302.054688 322.738281 325.808594 298.980469 C 349.5625 275.226562 364.179688 242.476562 364.179688 206.214844 C 364.179688 169.949219 349.5625 137.058594 325.808594 113.304688 Z M 38.648438 50.335938 C 41.039062 50.335938 42.863281 48.507812 42.863281 46.117188 C 42.863281 43.730469 41.039062 41.902344 38.648438 41.902344 C 36.398438 41.902344 34.429688 43.730469 34.429688 46.117188 C 34.429688 48.507812 36.398438 50.335938 38.648438 50.335938 Z M 60.152344 82.382812 C 65.917969 82.382812 70.414062 77.742188 70.414062 72.121094 C 70.414062 66.359375 65.917969 61.859375 60.152344 61.859375 C 54.53125 61.859375 49.894531 66.359375 49.894531 72.121094 C 49.894531 77.742188 54.53125 82.382812 60.152344 82.382812 Z M 101.476562 72.683594 C 101.476562 69.167969 98.527344 66.21875 95.011719 66.21875 C 91.496094 66.21875 88.546875 69.167969 88.546875 72.683594 C 88.546875 76.199219 91.496094 79.148438 95.011719 79.148438 C 98.527344 79.148438 101.476562 76.199219 101.476562 72.683594 Z M 140.691406 102.621094 L 140.691406 138.746094 L 112.441406 126.238281 L 112.441406 124.972656 C 112.441406 122.863281 111.878906 120.894531 111.035156 119.207031 L 131.417969 98.828125 C 134.085938 100.65625 137.320312 102.058594 140.691406 102.621094 Z M 161.074219 96.71875 L 219.96875 141.136719 L 149.265625 141.136719 L 149.265625 102.621094 C 153.765625 101.777344 157.839844 99.671875 161.074219 96.71875 Z M 156.578125 87.722656 L 156.4375 87.863281 C 153.90625 91.378906 149.6875 93.625 144.910156 93.625 C 140.972656 93.625 137.320312 91.941406 134.789062 89.410156 C 132.121094 86.738281 130.574219 83.226562 130.574219 79.148438 C 130.574219 71.277344 137.039062 64.8125 144.910156 64.8125 C 152.921875 64.8125 159.386719 71.277344 159.386719 79.148438 C 159.386719 82.382812 158.261719 85.332031 156.578125 87.722656 Z M 125.089844 92.363281 L 125.371094 92.785156 L 104.992188 113.023438 C 103.164062 112.179688 101.195312 111.757812 99.089844 111.757812 C 95.292969 111.757812 91.777344 113.304688 89.390625 115.976562 L 79.550781 111.617188 Z M 108.925781 134.109375 L 140.691406 148.164062 L 140.691406 201.152344 L 84.890625 145.351562 L 93.324219 136.917969 C 95.011719 137.761719 96.980469 138.324219 99.089844 138.324219 C 103.023438 138.324219 106.398438 136.636719 108.925781 134.109375 Z M 104.289062 127.359375 Z M 99.089844 119.488281 C 100.632812 119.488281 102.039062 120.050781 103.023438 121.035156 C 104.148438 122.019531 104.710938 123.425781 104.710938 124.972656 C 104.710938 125.816406 104.570312 126.515625 104.289062 127.21875 L 104.289062 127.359375 C 103.304688 129.328125 101.335938 130.59375 99.089844 130.59375 C 97.542969 130.59375 96.136719 130.03125 95.152344 128.90625 C 94.167969 127.921875 93.605469 126.515625 93.605469 124.972656 C 93.605469 121.878906 95.996094 119.488281 99.089844 119.488281 Z M 85.875 124.972656 C 85.875 127.078125 86.296875 129.046875 87.140625 130.875 L 78.707031 139.308594 L 45.253906 105.714844 L 85.875 123.847656 Z M 149.265625 149.710938 L 232.898438 149.710938 C 248.5 149.710938 262.558594 156.035156 272.816406 166.296875 C 283.078125 176.414062 289.402344 190.613281 289.402344 206.214844 C 289.402344 221.816406 283.078125 235.871094 272.816406 246.132812 C 262.558594 256.253906 248.5 262.578125 232.898438 262.578125 L 149.265625 262.578125 Z M 149.265625 149.710938 " clip-rule="nonzero"/></clipPath><linearGradient x1="665.54046" gradientTransform="matrix(0.140558, 0, 0, 0.140558, 10.8176, 41.901459)" y1="-292.903687" x2="1848.434641" gradientUnits="userSpaceOnUse" y2="2394.886905" id="ff67e29ea7"><stop stop-opacity="1" stop-color="rgb(7.099915%, 13.299561%, 61.599731%)" offset="0"/><stop stop-opacity="1" stop-color="rgb(7.099915%, 13.299561%, 61.599731%)" offset="0.25"/><stop stop-opacity="1" stop-color="rgb(7.099915%, 13.299561%, 61.599731%)" offset="0.257812"/><stop stop-opacity="1" stop-color="rgb(7.167053%, 13.407898%, 61.994934%)" offset="0.261719"/><stop stop-opacity="1" stop-color="rgb(7.235718%, 13.517761%, 62.390137%)" offset="0.265625"/><stop stop-opacity="1" stop-color="rgb(7.330322%, 13.670349%, 62.947083%)" offset="0.269531"/><stop stop-opacity="1" stop-color="rgb(7.426453%, 13.824463%, 63.504028%)" offset="0.273438"/><stop stop-opacity="1" stop-color="rgb(7.522583%, 13.978577%, 64.060974%)" offset="0.277344"/><stop stop-opacity="1" stop-color="rgb(7.618713%, 14.13269%, 64.61792%)" offset="0.28125"/><stop stop-opacity="1" stop-color="rgb(7.713318%, 14.285278%, 65.174866%)" offset="0.285156"/><stop stop-opacity="1" stop-color="rgb(7.809448%, 14.439392%, 65.731812%)" offset="0.289062"/><stop stop-opacity="1" stop-color="rgb(7.904053%, 14.593506%, 66.288757%)" offset="0.292969"/><stop stop-opacity="1" stop-color="rgb(8.000183%, 14.74762%, 66.845703%)" offset="0.296875"/><stop stop-opacity="1" stop-color="rgb(8.096313%, 14.900208%, 67.402649%)" offset="0.300781"/><stop stop-opacity="1" stop-color="rgb(8.192444%, 15.054321%, 67.959595%)" offset="0.304688"/><stop stop-opacity="1" stop-color="rgb(8.287048%, 15.208435%, 68.516541%)" offset="0.308594"/><stop stop-opacity="1" stop-color="rgb(8.383179%, 15.362549%, 69.073486%)" offset="0.3125"/><stop stop-opacity="1" stop-color="rgb(8.479309%, 15.515137%, 69.628906%)" offset="0.316406"/><stop stop-opacity="1" stop-color="rgb(8.575439%, 15.66925%, 70.185852%)" offset="0.320312"/><stop stop-opacity="1" stop-color="rgb(8.670044%, 15.823364%, 70.742798%)" offset="0.324219"/><stop stop-opacity="1" stop-color="rgb(8.766174%, 15.977478%, 71.299744%)" offset="0.328125"/><stop stop-opacity="1" stop-color="rgb(8.862305%, 16.130066%, 71.856689%)" offset="0.332031"/><stop stop-opacity="1" stop-color="rgb(8.958435%, 16.28418%, 72.413635%)" offset="0.335938"/><stop stop-opacity="1" stop-color="rgb(9.05304%, 16.438293%, 72.970581%)" offset="0.339844"/><stop stop-opacity="1" stop-color="rgb(9.14917%, 16.592407%, 73.527527%)" offset="0.34375"/><stop stop-opacity="1" stop-color="rgb(9.2453%, 16.744995%, 74.084473%)" offset="0.347656"/><stop stop-opacity="1" stop-color="rgb(9.341431%, 16.899109%, 74.641418%)" offset="0.351562"/><stop stop-opacity="1" stop-color="rgb(9.436035%, 17.053223%, 75.198364%)" offset="0.355469"/><stop stop-opacity="1" stop-color="rgb(9.532166%, 17.207336%, 75.75531%)" offset="0.359375"/><stop stop-opacity="1" stop-color="rgb(9.628296%, 17.359924%, 76.312256%)" offset="0.363281"/><stop stop-opacity="1" stop-color="rgb(9.724426%, 17.514038%, 76.869202%)" offset="0.367188"/><stop stop-opacity="1" stop-color="rgb(9.819031%, 17.668152%, 77.426147%)" offset="0.371094"/><stop stop-opacity="1" stop-color="rgb(9.915161%, 17.822266%, 77.983093%)" offset="0.375"/><stop stop-opacity="1" stop-color="rgb(10.009766%, 17.974854%, 78.540039%)" offset="0.378906"/><stop stop-opacity="1" stop-color="rgb(10.105896%, 18.128967%, 79.096985%)" offset="0.382812"/><stop stop-opacity="1" stop-color="rgb(10.202026%, 18.283081%, 79.653931%)" offset="0.386719"/><stop stop-opacity="1" stop-color="rgb(10.298157%, 18.437195%, 80.210876%)" offset="0.390625"/><stop stop-opacity="1" stop-color="rgb(10.392761%, 18.589783%, 80.766296%)" offset="0.394531"/><stop stop-opacity="1" stop-color="rgb(10.488892%, 18.743896%, 81.323242%)" offset="0.398438"/><stop stop-opacity="1" stop-color="rgb(10.585022%, 18.89801%, 81.880188%)" offset="0.402344"/><stop stop-opacity="1" stop-color="rgb(10.681152%, 19.052124%, 82.437134%)" offset="0.40625"/><stop stop-opacity="1" stop-color="rgb(10.775757%, 19.204712%, 82.99408%)" offset="0.410156"/><stop stop-opacity="1" stop-color="rgb(10.871887%, 19.358826%, 83.551025%)" offset="0.414062"/><stop stop-opacity="1" stop-color="rgb(10.968018%, 19.512939%, 84.107971%)" offset="0.417969"/><stop stop-opacity="1" stop-color="rgb(11.064148%, 19.667053%, 84.664917%)" offset="0.421875"/><stop stop-opacity="1" stop-color="rgb(11.158752%, 19.819641%, 85.221863%)" offset="0.425781"/><stop stop-opacity="1" stop-color="rgb(11.254883%, 19.973755%, 85.778809%)" offset="0.429688"/><stop stop-opacity="1" stop-color="rgb(11.351013%, 20.127869%, 86.335754%)" offset="0.433594"/><stop stop-opacity="1" stop-color="rgb(11.447144%, 20.281982%, 86.8927%)" offset="0.4375"/><stop stop-opacity="1" stop-color="rgb(11.541748%, 20.43457%, 87.449646%)" offset="0.441406"/><stop stop-opacity="1" stop-color="rgb(11.637878%, 20.588684%, 88.006592%)" offset="0.445312"/><stop stop-opacity="1" stop-color="rgb(11.732483%, 20.741272%, 88.563538%)" offset="0.449219"/><stop stop-opacity="1" stop-color="rgb(11.828613%, 20.895386%, 89.120483%)" offset="0.453125"/><stop stop-opacity="1" stop-color="rgb(11.924744%, 21.0495%, 89.677429%)" offset="0.457031"/><stop stop-opacity="1" stop-color="rgb(12.020874%, 21.203613%, 90.234375%)" offset="0.460938"/><stop stop-opacity="1" stop-color="rgb(12.115479%, 21.356201%, 90.789795%)" offset="0.464844"/><stop stop-opacity="1" stop-color="rgb(12.211609%, 21.510315%, 91.346741%)" offset="0.46875"/><stop stop-opacity="1" stop-color="rgb(12.307739%, 21.664429%, 91.903687%)" offset="0.472656"/><stop stop-opacity="1" stop-color="rgb(12.40387%, 21.818542%, 92.460632%)" offset="0.476562"/><stop stop-opacity="1" stop-color="rgb(12.498474%, 21.97113%, 93.017578%)" offset="0.480469"/><stop stop-opacity="1" stop-color="rgb(12.594604%, 22.125244%, 93.574524%)" offset="0.484375"/><stop stop-opacity="1" stop-color="rgb(12.690735%, 22.279358%, 94.13147%)" offset="0.488281"/><stop stop-opacity="1" stop-color="rgb(12.786865%, 22.433472%, 94.688416%)" offset="0.492188"/><stop stop-opacity="1" stop-color="rgb(12.88147%, 22.58606%, 95.245361%)" offset="0.496094"/><stop stop-opacity="1" stop-color="rgb(12.9776%, 22.740173%, 95.802307%)" offset="0.5"/><stop stop-opacity="1" stop-color="rgb(13.07373%, 22.894287%, 96.359253%)" offset="0.503906"/><stop stop-opacity="1" stop-color="rgb(13.169861%, 23.048401%, 96.916199%)" offset="0.507812"/><stop stop-opacity="1" stop-color="rgb(13.264465%, 23.200989%, 97.473145%)" offset="0.511719"/><stop stop-opacity="1" stop-color="rgb(13.360596%, 23.355103%, 98.03009%)" offset="0.515625"/><stop stop-opacity="1" stop-color="rgb(13.456726%, 23.509216%, 98.587036%)" offset="0.519531"/><stop stop-opacity="1" stop-color="rgb(13.552856%, 23.66333%, 99.143982%)" offset="0.523438"/><stop stop-opacity="1" stop-color="rgb(13.626099%, 23.780823%, 99.571228%)" offset="0.527344"/><stop stop-opacity="1" stop-color="rgb(13.699341%, 23.899841%, 100%)" offset="0.53125"/><stop stop-opacity="1" stop-color="rgb(13.699341%, 23.899841%, 100%)" offset="0.5625"/><stop stop-opacity="1" stop-color="rgb(13.699341%, 23.899841%, 100%)" offset="0.625"/><stop stop-opacity="1" stop-color="rgb(13.699341%, 23.899841%, 100%)" offset="0.655263"/><stop stop-opacity="1" stop-color="rgb(13.699341%, 23.899841%, 100%)" offset="0.75"/><stop stop-opacity="1" stop-color="rgb(13.699341%, 23.899841%, 100%)" offset="1"/></linearGradient></defs><g clip-path="url(#6c9e7b381b)"><g clip-path="url(#bfa3f44aec)"><path fill="url(#ff67e29ea7)" d="M 10.816406 41.902344 L 10.816406 337.402344 L 364.066406 337.402344 L 364.066406 41.902344 Z M 10.816406 41.902344 " fill-rule="nonzero"/></g></g></svg>